# xmcd
# Copyright (C) 1995-1998 Ti Kan
#
# Track frame offsets:
#       150
#       14748
#       33955
#       50780
#       69727
#       87247
#       105186
#       111286
#       130588
#       149999
#       174440
#       189029
#       205231
#
# Disc length: 3052 seconds
#
# Revision: 0
# Processed by: cddbd v1.5.2PL0 Copyright (c) Steve Scherf et al.
# Submitted via: CD-Import v1.0
#
DISCID=b70bea0d
DTITLE=Sons - Visiting Hour
DYEAR=2009
DGENRE=
TTITLE0=Welcome Home Again
TTITLE1=Worry
TTITLE2=Beside The Sea
TTITLE3=Trying So Hard
TTITLE4=Sleeping It Off
TTITLE5=Safe
TTITLE6=Intermission
TTITLE7=Kids With Knives
TTITLE8=Nightshade
TTITLE9=Real Life
TTITLE10=Do What You Feel
TTITLE11=Geraldine And Me
TTITLE12=Heroes
EXTD=
EXTT0=
EXTT1=
EXTT2=
EXTT3=
EXTT4=
EXTT5=
EXTT6=
EXTT7=
EXTT8=
EXTT9=
EXTT10=
EXTT11=
EXTT12=
PLAYORDER=
